<?xml version="1.0" encoding="utf-8"?>
<!-- Generator: Adobe Illustrator 27.5.0, SVG Export Plug-In . SVG Version: 6.00 Build 0)  -->
<svg version="1.1" id="Camada_1" xmlns="http://www.w3.org/2000/svg" xmlns:xlink="http://www.w3.org/1999/xlink" x="0px" y="0px"
	 viewBox="0 0 256 256" style="enable-background:new 0 0 256 256;" xml:space="preserve">
<style type="text/css">
	.st0{fill:#2E6470;}
</style>
<g transform="translate(1.4065934065934016 1.4065934065934016) scale(2.81 2.81)">
	<path class="st0" d="M62.4,71.8L45,62.6l-17.4,9.1l3.3-19.4l-14-13.6l19.5-2.8L45,18.2l8.7,17.6l19.5,2.8L59.1,52.4L62.4,71.8z"/>
	<polygon class="st0" points="9.3,64.6 12.2,47.8 0,35.9 16.8,33.5 24.4,18.2 30.8,31.2 29,32.1 24.4,22.7 18.2,35.3 4.3,37.3 
		14.3,47.1 11.9,60.9 22.5,55.4 23.5,57.1 	"/>
	<polygon class="st0" points="80.7,64.6 66.6,57.1 67.5,55.4 78.1,60.9 75.7,47.1 85.7,37.3 71.8,35.3 65.6,22.7 61,32.1 59.2,31.2 
		65.6,18.2 73.2,33.5 90,35.9 77.8,47.8 	"/>
</g>
</svg>
